<svg id="fi_4371439" enable-background="new 0 0 512 512" height="512" viewBox="0 0 512 512" width="512"
     xmlns="http://www.w3.org/2000/svg">
    <g>
        <g>
            <path d="m420.379 363.473h-8.031c10.728-12.719 17.212-29.129 17.212-47.033 0-12.757-3.295-24.756-9.066-35.205 11.917-21.16 19.905-44.917 22.888-70.362.482-4.114-2.462-7.84-6.576-8.322-4.113-.479-7.841 2.462-8.322 6.576-2.453 20.934-8.588 40.626-17.694 58.481-5.555-6.169-12.138-11.395-19.484-15.392 9.097-19.294 14.205-40.823 14.205-63.53 0-82.439-67.069-149.508-149.509-149.508s-149.509 67.069-149.509 149.508c0 22.707 5.107 44.236 14.205 63.53-7.313 3.979-13.87 9.173-19.408 15.305-12.114-23.675-18.974-50.464-18.974-78.835-.003-95.771 77.913-173.686 173.684-173.686 44.106 0 86.154 16.553 118.397 46.609 32.082 29.905 51.543 70.374 54.797 113.95.31 4.131 3.919 7.231 8.038 6.92 4.131-.308 7.229-3.907 6.921-8.038-3.537-47.351-24.678-91.319-59.527-123.805-35.03-32.653-80.71-50.636-128.626-50.636-104.042 0-188.687 84.644-188.687 188.686 0 33.567 8.824 65.105 24.255 92.441-5.808 10.474-9.128 22.511-9.128 35.313 0 17.903 6.484 34.314 17.212 47.033h-8.031c-27.309 0-49.525 22.217-49.525 49.526v46.271c0 6.893 5.607 12.5 12.5 12.5h31.404c4.143 0 7.5-3.358 7.5-7.5s-3.357-7.5-7.5-7.5h-28.904v-43.771c0-19.038 15.488-34.526 34.525-34.526h25.345c11.195 6.98 24.398 11.027 38.534 11.027 11.785 0 22.919-2.817 32.782-7.798 3.062 8.115 7.527 15.548 13.099 22.001h-9.26c-27.309 0-49.525 22.217-49.525 49.526v3.541h-21.596c-4.143 0-7.5 3.358-7.5 7.5s3.357 7.5 7.5 7.5h21.596v27.73c0 6.893 5.607 12.5 12.5 12.5h201.809c6.893 0 12.5-5.607 12.5-12.5v-27.73h88c6.893 0 12.5-5.607 12.5-12.5v-46.271c-.001-27.309-22.217-49.526-49.526-49.526zm-5.819-47.033c0 32.015-26.046 58.06-58.06 58.06-10.019 0-19.447-2.561-27.681-7.048.589-3.725.913-7.537.913-11.425 0-23.457-11.124-44.352-28.36-57.729 7.636-23.153 29.451-39.917 55.129-39.917 32.013-.001 58.059 26.045 58.059 58.059zm-239.876-120.254h40.311c.231 19.092 1.342 37.517 3.25 54.444h-31.06c-1.296-.626-2.611-1.216-3.948-1.767-4.997-16.279-7.933-34.11-8.553-52.677zm49.293-50.716c4.113.369 7.772-2.669 8.145-6.795.376-4.16.787-8.132 1.228-11.933h45.305c1.963 16.814 3.113 35.252 3.349 54.444h-52.005c.034-2.661.084-5.33.153-7.991.108-4.141-3.162-7.585-7.303-7.692-4.129-.093-7.584 3.162-7.691 7.303-.073 2.791-.124 5.59-.158 8.381h-40.314c.643-19.239 3.765-37.694 9.098-54.444h34.474c-.389 3.458-.75 6.984-1.074 10.583-.374 4.125 2.668 7.771 6.793 8.144zm6.02 50.716h52.006c-.237 19.192-1.386 37.63-3.349 54.444h-45.307c-1.964-16.814-3.113-35.252-3.35-54.444zm-9.781 69.444c1.317 8.789 2.861 17.06 4.634 24.642-.326.159-.643.333-.967.496-3.566-9.467-9.04-18.003-15.956-25.138zm18.852 19.494c-1.375-6.087-2.613-12.596-3.691-19.494h41.246c-1.06 6.78-2.274 13.182-3.62 19.18-5.253-1.204-10.719-1.843-16.332-1.843-6.068 0-11.962.756-17.603 2.157zm57.937-88.938h40.311c-.62 18.566-3.556 36.396-8.553 52.675-1.334.55-2.646 1.143-3.94 1.769h-31.069c1.909-16.927 3.02-35.352 3.251-54.444zm-3.251-69.444h34.464c5.333 16.75 8.455 35.205 9.098 54.444h-40.311c-.231-19.092-1.342-37.517-3.251-54.444zm10.335 138.888c-6.774 6.993-12.173 15.328-15.742 24.567-.352-.17-.709-.332-1.065-.497 1.717-7.427 3.219-15.5 4.503-24.071h12.304zm52.411-22.25c-3.686 0-7.305.283-10.845.813 3.875-15.158 6.152-31.334 6.676-48.007h37.966c-.989 17.909-5.507 34.887-12.854 50.268-6.639-1.99-13.665-3.074-20.943-3.074zm33.796-62.194h-37.966c-.599-19.057-3.487-37.464-8.435-54.444h31.474c8.576 16.459 13.848 34.901 14.927 54.444zm-24.033-69.444h-27.426c-3.793-9.839-8.326-19.06-13.583-27.453-4.217-6.732-8.777-12.762-13.621-18.057 22.024 10.046 40.88 25.866 54.63 45.51zm-53.722-19.49c3.784 6.042 7.153 12.576 10.115 19.49h-30.871c-1.348-9.002-2.934-17.464-4.761-25.196-2.6-11.004-5.512-20.054-8.76-27.19 12.701 6.031 24.45 17.207 34.277 32.896zm-56.541-38.074c1.682 0 9.399 6.079 16.426 35.818 1.585 6.71 2.986 13.999 4.197 21.747h-41.252c6.648-42.785 17.119-57.565 20.629-57.565zm-22.208 5.152c-1.438 3.154-2.815 6.681-4.132 10.59-3.822 11.339-7.014 25.54-9.446 41.823h-30.87c2.962-6.914 6.33-13.448 10.115-19.49 9.842-15.713 21.61-26.899 34.333-32.923zm-33.425 6.902c-4.844 5.295-9.404 11.325-13.621 18.057-5.257 8.392-9.79 17.614-13.583 27.453h-27.426c13.75-19.644 32.606-35.464 54.63-45.51zm-63.736 60.51h31.474c-4.948 16.98-7.836 35.387-8.435 54.444h-37.966c1.079-19.543 6.351-37.985 14.927-54.444zm-14.927 69.444h37.966c.524 16.676 2.801 32.854 6.677 48.014-3.542-.53-7.16-.82-10.847-.82-7.278 0-14.304 1.084-20.942 3.074-7.347-15.381-11.865-32.359-12.854-50.268zm33.796 178.314c-32.014 0-58.06-26.045-58.06-58.06 0-32.014 26.046-58.06 58.06-58.06 25.987 0 48.026 17.168 55.408 40.754-16.63 13.403-27.297 33.921-27.297 56.893 0 3.643.28 7.22.799 10.72-8.519 4.92-18.385 7.753-28.91 7.753zm43.111-18.473c0-32.015 26.045-58.06 58.06-58.06s58.061 26.045 58.061 58.06c0 32.014-26.046 58.06-58.061 58.06s-58.06-26.046-58.06-58.06zm155.793 140.973h-196.808v-43.771c0-19.038 15.488-34.526 34.525-34.526h27.057c10.969 6.586 23.794 10.383 37.493 10.383s26.525-3.797 37.493-10.383h25.715c19.037 0 34.525 15.488 34.525 34.526zm100.5-40.23h-85.5v-3.541c0-27.309-22.217-49.526-49.525-49.526h-7.918c5.444-6.305 9.828-13.547 12.883-21.445 9.582 4.633 20.317 7.242 31.656 7.242 14.136 0 27.339-4.048 38.534-11.027h25.345c19.037 0 34.525 15.488 34.525 34.526z"/>
            <path d="m234.283 372.283c0 11.402 10.043 20.678 22.388 20.678s22.389-9.276 22.389-20.678c0-4.142-3.357-7.5-7.5-7.5s-7.5 3.358-7.5 7.5c0 3.078-3.384 5.678-7.389 5.678s-7.388-2.6-7.388-5.678c0-4.142-3.357-7.5-7.5-7.5s-7.5 3.358-7.5 7.5z"/>
            <path d="m235.033 352.562c4.143 0 7.5-3.358 7.5-7.5v-6.323c0-4.142-3.357-7.5-7.5-7.5s-7.5 3.358-7.5 7.5v6.323c0 4.142 3.358 7.5 7.5 7.5z"/>
            <path d="m278.31 352.562c4.143 0 7.5-3.358 7.5-7.5v-6.323c0-4.142-3.357-7.5-7.5-7.5s-7.5 3.358-7.5 7.5v6.323c0 4.142 3.357 7.5 7.5 7.5z"/>
        </g>
    </g>
</svg>
