<svg id="fi_4371403" enable-background="new 0 0 512 512" height="512" viewBox="0 0 512 512" width="512"
     xmlns="http://www.w3.org/2000/svg">
    <g>
        <g>
            <path d="m374.202 191.879h-106.427c-4.142 0-7.5 3.358-7.5 7.5s3.358 7.5 7.5 7.5h106.427c4.142 0 7.5-3.358 7.5-7.5s-3.358-7.5-7.5-7.5z"/>
            <path d="m374.202 224.652h-42.571c-4.142 0-7.5 3.358-7.5 7.5s3.358 7.5 7.5 7.5h42.571c4.142 0 7.5-3.358 7.5-7.5s-3.358-7.5-7.5-7.5z"/>
            <path d="m374.202 295.155h-176.321c-4.142 0-7.5 3.358-7.5 7.5s3.358 7.5 7.5 7.5h176.321c4.142 0 7.5-3.358 7.5-7.5s-3.358-7.5-7.5-7.5z"/>
            <path d="m374.202 327.928h-51.44c-4.142 0-7.5 3.358-7.5 7.5s3.358 7.5 7.5 7.5h51.44c4.142 0 7.5-3.358 7.5-7.5s-3.358-7.5-7.5-7.5z"/>
            <path d="m197.881 342.928h104.483c4.142 0 7.5-3.358 7.5-7.5s-3.358-7.5-7.5-7.5h-104.483c-4.142 0-7.5 3.358-7.5 7.5s3.358 7.5 7.5 7.5z"/>
            <path d="m374.202 360.7h-176.321c-4.142 0-7.5 3.358-7.5 7.5s3.358 7.5 7.5 7.5h176.321c4.142 0 7.5-3.358 7.5-7.5s-3.358-7.5-7.5-7.5z"/>
            <path d="m374.202 393.473h-84.255c-4.142 0-7.5 3.358-7.5 7.5s3.358 7.5 7.5 7.5h84.255c4.142 0 7.5-3.358 7.5-7.5s-3.358-7.5-7.5-7.5z"/>
            <path d="m197.881 393.473c-4.142 0-7.5 3.358-7.5 7.5s3.358 7.5 7.5 7.5h71.667c4.142 0 7.5-3.358 7.5-7.5s-3.358-7.5-7.5-7.5z"/>
            <path d="m77.472 224.979c2.711-3.132 2.369-7.868-.763-10.579-25.222-21.827-39.533-53.465-39.263-86.801.239-29.73 11.991-57.794 33.091-79.023 21.103-21.23 49.096-33.15 78.822-33.564.541-.007 1.075-.011 1.613-.011 21.464 0 42.375 6.045 60.473 17.483 17.622 11.137 31.852 26.857 41.153 45.461 1.852 3.704 6.357 5.207 10.062 3.354s5.207-6.357 3.354-10.063c-10.524-21.05-26.623-38.835-46.556-51.433-20.497-12.955-44.18-19.803-68.485-19.803-.606 0-1.208.004-1.82.012-33.673.47-65.371 13.961-89.254 37.989-23.88 24.026-37.181 55.803-37.452 89.477-.305 37.739 15.895 73.555 44.446 98.265 1.418 1.228 3.166 1.829 4.905 1.829 2.101-.001 4.191-.879 5.674-2.593z"/>
            <path d="m454.228 95.735h-212.933c-3.804-10.687-9.479-20.7-16.855-29.498-2.661-3.174-7.393-3.59-10.566-.928-3.174 2.661-3.59 7.392-.928 10.566 12.211 14.563 18.936 33.067 18.936 52.102 0 23.416-10.123 45.692-27.772 61.117-9.451 8.26-16.985 18.112-22.392 29.281l-2.333 4.82h-13.357l13.489-62.174c1.127-5.198-.141-10.555-3.479-14.695-3.339-4.141-8.305-6.516-13.624-6.516h-24.176c-5.319 0-10.285 2.375-13.624 6.516-3.338 4.141-4.606 9.497-3.479 14.695l13.489 62.174h-12.54l-2.332-4.818c-5.474-11.308-12.906-21.072-22.091-29.021-18.032-15.604-28.263-38.221-28.07-62.049.353-43.761 36.233-79.859 79.984-80.468 13.275-.181 26.462 2.896 38.172 8.911 3.684 1.893 8.205.441 10.098-3.245 1.893-3.685.439-8.206-3.245-10.098-13.886-7.132-29.538-10.795-45.234-10.566-51.841.722-94.357 43.493-94.775 95.345-.228 28.232 11.893 55.026 33.255 73.513 7.21 6.24 13.116 13.869 17.61 22.667-5.958.949-10.532 6.108-10.532 12.329v32.213c0 6.893 5.607 12.5 12.5 12.5h10.216l2.739 19.362c.867 6.127 6.188 10.749 12.376 10.749h5.523v126.37h-18.348c-5.799 0-10.5 4.701-10.5 10.5v29.282c0 19.512 15.818 35.33 35.33 35.33h248.242 5.472c19.512 0 35.33-15.818 35.33-35.33v-206.671c0-4.219-3.483-7.624-7.731-7.497-4.105.123-7.269 3.704-7.269 7.811v206.356c0 11.228-9.102 20.33-20.33 20.33h-2.594c-.663 0-1.321-.073-1.979-.152-.003 0-.006-.001-.009-.001-10.194-1.22-17.881-9.894-17.881-20.177v-29.282c0-5.799-4.701-10.5-10.5-10.5h-38.197c-4.107 0-7.688 3.164-7.811 7.269-.128 4.247 3.278 7.731 7.497 7.731h34.012v24.782c0 7.525 2.37 14.554 6.438 20.33h-222.69c-11.228 0-20.33-9.102-20.33-20.33v-24.782h167.256c4.107 0 7.688-3.164 7.811-7.269.128-4.247-3.278-7.731-7.497-7.731h-138.721v-126.37h15.434c6.189 0 11.51-4.621 12.377-10.749l2.739-19.362h10.215c5.298 0 9.826-3.319 11.642-7.983h168.515c4.142 0 7.5-3.358 7.5-7.5s-3.358-7.5-7.5-7.5h-167.657v-17.772h103.801c4.142 0 7.5-3.358 7.5-7.5s-3.358-7.5-7.5-7.5h-110.498c-1.181-.621-2.468-1.069-3.832-1.287 3.065-5.984 6.886-11.494 11.395-16.486h39.966c4.142 0 7.5-3.358 7.5-7.5s-3.358-7.5-7.5-7.5h-24.822c8.533-9.592 15.015-20.742 19.133-32.762h97.702c4.142 0 7.5-3.358 7.5-7.5s-3.358-7.5-7.5-7.5h-93.88c.902-5.294 1.372-10.691 1.372-16.141 0-5.813-.539-11.581-1.573-17.242h179.945c-4.062 5.753-6.45 12.768-6.45 20.33v103.936c0 4.142 3.358 7.5 7.5 7.5s7.5-3.358 7.5-7.5v-52.506h45.253c5.79 0 10.5-4.71 10.5-10.5v-40.93c.002-19.481-15.847-35.329-35.328-35.329zm-317.937 60.006c.28-.348.906-.931 1.946-.931h24.176c1.041 0 1.666.583 1.946.931s.718 1.083.497 2.099l-14.179 65.354h-.705l-14.179-65.354c-.219-1.017.218-1.752.498-2.099zm30.251 139.777h-31.615l-2.138-15.111h35.89zm25.002-30.111h-81.62v-27.213h81.62zm283.014-97.913h-40.753v-36.43c0-11.21 9.12-20.33 20.33-20.33h.094c11.21 0 20.33 9.12 20.33 20.33v36.43z"/>
            <path d="m113.499 310.46c0-4.142-3.358-7.5-7.5-7.5h-7.46v-7.46c0-4.142-3.358-7.5-7.5-7.5s-7.5 3.358-7.5 7.5v7.46h-7.46c-4.142 0-7.5 3.358-7.5 7.5s3.358 7.5 7.5 7.5h7.46v7.46c0 4.142 3.358 7.5 7.5 7.5s7.5-3.358 7.5-7.5v-7.46h7.46c4.143 0 7.5-3.357 7.5-7.5z"/>
            <path d="m195.96 141.421c4.142 0 7.5-3.358 7.5-7.5v-7.46h7.46c4.142 0 7.5-3.358 7.5-7.5s-3.358-7.5-7.5-7.5h-7.46v-7.461c0-4.142-3.358-7.5-7.5-7.5s-7.5 3.358-7.5 7.5v7.46h-7.46c-4.142 0-7.5 3.358-7.5 7.5s3.358 7.5 7.5 7.5h7.46v7.46c0 4.143 3.358 7.501 7.5 7.501z"/>
        </g>
    </g>
</svg>
