<svg id="fi_4371346" enable-background="new 0 0 512 512" height="512" viewBox="0 0 512 512" width="512"
     xmlns="http://www.w3.org/2000/svg">
    <g>
        <g>
            <path d="m153.187 169.792h55.808c4.143 0 7.5-3.358 7.5-7.5s-3.357-7.5-7.5-7.5h-55.808c-4.143 0-7.5 3.358-7.5 7.5s3.357 7.5 7.5 7.5z"/>
            <path d="m153.187 202.502h126.808c4.143 0 7.5-3.358 7.5-7.5s-3.357-7.5-7.5-7.5h-126.808c-4.143 0-7.5 3.358-7.5 7.5s3.357 7.5 7.5 7.5z"/>
            <path d="m351.994 263.663h-198.807c-4.143 0-7.5 3.358-7.5 7.5s3.357 7.5 7.5 7.5h198.808c4.143 0 7.5-3.358 7.5-7.5s-3.358-7.5-7.501-7.5z"/>
            <path d="m351.994 296.372h-58c-4.143 0-7.5 3.358-7.5 7.5s3.357 7.5 7.5 7.5h58c4.143 0 7.5-3.358 7.5-7.5s-3.357-7.5-7.5-7.5z"/>
            <path d="m153.187 296.372c-4.143 0-7.5 3.358-7.5 7.5s3.357 7.5 7.5 7.5h117.808c4.143 0 7.5-3.358 7.5-7.5s-3.357-7.5-7.5-7.5z"/>
            <path d="m351.994 361.791h-95c-4.143 0-7.5 3.358-7.5 7.5s3.357 7.5 7.5 7.5h95c4.143 0 7.5-3.358 7.5-7.5s-3.357-7.5-7.5-7.5z"/>
            <path d="m469.744 97.775 10.87-22.289c2.516-5.159.517-11.31-4.55-14.002l-21.894-11.643-4.308-24.422c-.996-5.65-6.225-9.45-11.911-8.654l-24.557 3.451-17.836-17.223c-4.131-3.99-10.599-3.99-14.726-.001l-17.838 17.225-24.558-3.451c-5.683-.793-10.914 3.003-11.911 8.654l-3.739 21.199h-212.85c-6.893 0-12.5 5.607-12.5 12.5v264.781c-38.887 12.389-67.135 48.85-67.135 91.789 0 53.106 43.205 96.312 96.312 96.312 19.244 0 37.823-5.661 53.729-16.37 3.436-2.313 4.345-6.974 2.031-10.41-2.313-3.436-6.973-4.347-10.41-2.032-13.42 9.035-29.102 13.811-45.351 13.811-44.835 0-81.312-36.476-81.312-81.312 0-44.835 36.477-81.311 81.312-81.311s81.312 36.476 81.312 81.311c0 15.977-4.634 31.441-13.4 44.723-2.281 3.457-1.329 8.109 2.128 10.391 3.457 2.281 8.108 1.33 10.392-2.128 2.342-3.548 4.421-7.233 6.258-11.02h181.944c6.893 0 12.5-5.607 12.5-12.5v-94.154c0-4.142-3.357-7.5-7.5-7.5s-7.5 3.358-7.5 7.5v91.654h-173.665c2.532-8.695 3.843-17.758 3.843-26.966 0-2.079-.074-4.141-.204-6.188h129.275c4.143 0 7.5-3.358 7.5-7.5s-3.357-7.5-7.5-7.5h-131.425c-1.385-6.145-3.36-12.068-5.86-17.709h19.284c4.143 0 7.5-3.358 7.5-7.5s-3.357-7.5-7.5-7.5h-27.602c-4.416-6.516-9.611-12.461-15.446-17.709h161.047c4.143 0 7.5-3.358 7.5-7.5s-3.357-7.5-7.5-7.5h-183.276c-12.727-6.212-27.015-9.704-42.104-9.704-4.816 0-9.549.36-14.177 1.046v-258.805h187.662c-4.895 2.756-6.8 8.789-4.324 13.868l10.87 22.289-2.625 5.383h-111.58c-4.143 0-7.5 3.358-7.5 7.5s3.357 7.5 7.5 7.5h104.265l-.93 1.906c-2.515 5.157-.517 11.308 4.55 14.002l21.896 11.643 1.602 9.083h-91.826c-4.143 0-7.5 3.358-7.5 7.5s3.357 7.5 7.5 7.5h94.472l.06.338c.998 5.653 6.247 9.453 11.911 8.654l8.856-1.244v9.962h-43.299c-4.143 0-7.5 3.358-7.5 7.5s3.357 7.5 7.5 7.5h43.299v17.709h-194.108c-4.143 0-7.5 3.358-7.5 7.5s3.357 7.5 7.5 7.5h194.106v18.356c0 4.154 2.337 7.831 6.098 9.595 3.763 1.764 8.082 1.209 11.277-1.447l23.525-19.566 4.552 3.786v70.064c0 4.142 3.357 7.5 7.5 7.5s7.5-3.358 7.5-7.5v-57.59l3.975 3.306c1.957 1.627 4.336 2.466 6.751 2.466 1.527 0 3.069-.336 4.526-1.019 3.761-1.764 6.098-5.441 6.098-9.595v-76.028l8.855 1.244c5.687.798 10.915-3.001 11.912-8.654l4.308-24.421 21.895-11.643c5.066-2.694 7.064-8.845 4.55-14.002zm-55.649 146.406-19.122-15.903c-1.964-1.634-4.371-2.452-6.778-2.452-2.406 0-4.813.817-6.777 2.45l-19.124 15.905v-68.748l.701-.099 17.838 17.225c2.064 1.994 4.713 2.991 7.362 2.991 2.648 0 5.298-.997 7.361-2.99l17.839-17.226.7.098zm41.226-141.76 9.947 20.397-20.034 10.654c-2.903 1.542-4.896 4.284-5.463 7.518l-3.942 22.349-22.472-3.157c-3.251-.458-6.476.589-8.838 2.871l-16.325 15.764-16.327-15.765c-1.999-1.93-4.61-2.975-7.336-2.975-.497 0-.997.035-1.498.105l-22.475 3.157-3.941-22.351c-.572-3.235-2.563-5.974-5.461-7.514l-20.037-10.655 9.947-20.397c1.439-2.953 1.439-6.339 0-9.292l-9.947-20.397 20.038-10.656c2.897-1.542 4.888-4.28 5.46-7.516l3.941-22.349 22.477 3.158c3.256.457 6.469-.59 8.834-2.871l16.325-15.764 16.325 15.763c2.361 2.281 5.582 3.326 8.837 2.872l22.473-3.158 3.941 22.345c.568 3.236 2.559 5.977 5.461 7.521l20.037 10.655-9.947 20.397c-1.439 2.952-1.439 6.339 0 9.291z"/>
            <path d="m432.856 87.979c3.845-1.54 5.714-5.906 4.173-9.751-8.044-20.081-27.213-33.056-48.835-33.056-29.006 0-52.604 23.598-52.604 52.604 0 29.005 23.598 52.603 52.604 52.603 20.795 0 39.678-12.295 48.106-31.325 1.678-3.787-.033-8.217-3.82-9.895-3.786-1.677-8.217.033-9.895 3.82-6.027 13.607-19.526 22.399-34.392 22.399-20.734 0-37.604-16.869-37.604-37.603 0-20.735 16.869-37.604 37.604-37.604 15.456 0 29.159 9.277 34.911 23.634 1.543 3.846 5.911 5.714 9.752 4.174z"/>
            <path d="m403.275 81.976-17.946 17.947-12.218-12.217c-2.928-2.929-7.677-2.93-10.606 0-2.929 2.929-2.929 7.678 0 10.606l17.521 17.52c1.464 1.464 3.384 2.197 5.303 2.197s3.839-.732 5.304-2.197l23.25-23.25c2.929-2.929 2.929-7.678 0-10.606-2.93-2.929-7.678-2.929-10.608 0z"/>
            <path d="m139.494 430.688c0 7.104-5.778 12.882-12.882 12.882s-12.882-5.779-12.882-12.882c0-4.142-3.357-7.5-7.5-7.5s-7.5 3.358-7.5 7.5c0 15.375 12.508 27.882 27.882 27.882s27.882-12.508 27.882-27.882c0-4.142-3.357-7.5-7.5-7.5s-7.5 3.358-7.5 7.5z"/>
            <path d="m80.607 395.261v16.61c0 4.142 3.357 7.5 7.5 7.5s7.5-3.358 7.5-7.5v-16.61c0-4.142-3.357-7.5-7.5-7.5s-7.5 3.358-7.5 7.5z"/>
            <path d="m157.617 395.261v16.61c0 4.142 3.357 7.5 7.5 7.5s7.5-3.358 7.5-7.5v-16.61c0-4.142-3.357-7.5-7.5-7.5s-7.5 3.358-7.5 7.5z"/>
        </g>
    </g>
</svg>
